<svg width="1655" height="984" xmlns="http://www.w3.org/2000/svg" xmlns:xlink="http://www.w3.org/1999/xlink" xml:space="preserve" overflow="hidden"><defs><clipPath id="clip0"><rect x="2389" y="769" width="1655" height="984"/></clipPath></defs><g clip-path="url(#clip0)" transform="translate(-2389 -769)"><rect x="2390" y="770" width="1652" height="981" fill="#FFFFFF"/><g><path d="M3215.61 1269.54 3263.61 1297.54M3263.61 1297.54 3263.61 1352.54M3263.61 1352.54 3215.61 1380.55M3215.61 1380.55 3167.6 1352.54M3167.6 1352.54 3167.6 1297.54M3167.6 1297.54 3215.61 1269.54M3215.61 1214.54 3311.61 1269.54M3311.61 1269.54 3311.61 1380.55M3311.61 1380.55 3215.61 1435.55M3215.61 1435.55 3120.6 1380.55M3120.6 1380.55 3120.6 1269.54M3120.6 1269.54 3215.61 1214.54M3215.61 1159.54 3358.61 1242.54M3358.61 1242.54 3358.61 1407.55M3358.61 1407.55 3215.61 1490.55M3215.61 1490.55 3072.6 1407.55M3072.6 1407.55 3072.6 1242.54M3072.6 1242.54 3215.61 1159.54M3215.61 1104.54 3406.61 1214.54M3406.61 1214.54 3406.61 1435.55M3406.61 1435.55 3215.61 1545.55M3215.61 1545.55 3024.6 1435.55M3024.6 1435.55 3024.6 1214.54M3024.6 1214.54 3215.61 1104.54M3215.61 1049.53 3454.61 1186.54M3454.61 1186.54 3454.61 1462.55M3454.61 1462.55 3215.61 1600.55M3215.61 1600.55 2976.6 1462.55M2976.6 1462.55 2976.6 1186.54M2976.6 1186.54 3215.61 1049.53M3215.61 993.5 3502.5 1159.54M3502.5 1159.54 3502.5 1490.55M3502.5 1490.55 3215.61 1655.5M3215.61 1655.5 2929.5 1490.55M2929.5 1490.55 2929.5 1159.54M2929.5 1159.54 3215.61 993.5" stroke="#D9D9D9" stroke-width="3.4375" stroke-linejoin="round" stroke-miterlimit="10" fill="none"/></g><g><path d="M3103 1260.04 3216.11 1038 3360.11 1242.04 3463 1468 3216.11 1410.05 3104.1 1389.05 3103 1260.04" stroke="#4472C4" stroke-width="10.3125" stroke-linecap="round" stroke-linejoin="round" stroke-miterlimit="10" fill="none"/></g><g><path d="M3226.25 1038.99C3226.25 1045.07 3221.33 1049.99 3215.25 1049.99 3209.18 1049.99 3204.25 1045.07 3204.25 1038.99 3204.25 1032.92 3209.18 1027.99 3215.25 1027.99 3221.33 1027.99 3226.25 1032.92 3226.25 1038.99Z" stroke="#4472C4" stroke-width="3.4375" stroke-linejoin="round" stroke-miterlimit="10" fill="#4472C4"/><path d="M3370.25 1241.99C3370.25 1248.07 3365.33 1252.99 3359.25 1252.99 3353.18 1252.99 3348.25 1248.07 3348.25 1241.99 3348.25 1235.92 3353.18 1230.99 3359.25 1230.99 3365.33 1230.99 3370.25 1235.92 3370.25 1241.99Z" stroke="#4472C4" stroke-width="3.4375" stroke-linejoin="round" stroke-miterlimit="10" fill="#4472C4"/><path d="M3473.25 1467.99C3473.25 1474.07 3468.33 1478.99 3462.25 1478.99 3456.18 1478.99 3451.25 1474.07 3451.25 1467.99 3451.25 1461.92 3456.18 1456.99 3462.25 1456.99 3468.33 1456.99 3473.25 1461.92 3473.25 1467.99Z" stroke="#4472C4" stroke-width="3.4375" stroke-linejoin="round" stroke-miterlimit="10" fill="#4472C4"/><path d="M3226.25 1410.99C3226.25 1417.07 3221.33 1421.99 3215.25 1421.99 3209.18 1421.99 3204.25 1417.07 3204.25 1410.99 3204.25 1404.92 3209.18 1399.99 3215.25 1399.99 3221.33 1399.99 3226.25 1404.92 3226.25 1410.99Z" stroke="#4472C4" stroke-width="3.4375" stroke-linejoin="round" stroke-miterlimit="10" fill="#4472C4"/><path d="M3114.25 1389.99C3114.25 1396.07 3109.33 1400.99 3103.25 1400.99 3097.18 1400.99 3092.25 1396.07 3092.25 1389.99 3092.25 1383.92 3097.18 1378.99 3103.25 1378.99 3109.33 1378.99 3114.25 1383.92 3114.25 1389.99Z" stroke="#4472C4" stroke-width="3.4375" stroke-linejoin="round" stroke-miterlimit="10" fill="#4472C4"/><path d="M3113.25 1259.99C3113.25 1266.07 3108.33 1270.99 3102.25 1270.99 3096.18 1270.99 3091.25 1266.07 3091.25 1259.99 3091.25 1253.92 3096.18 1248.99 3102.25 1248.99 3108.33 1248.99 3113.25 1253.92 3113.25 1259.99Z" stroke="#4472C4" stroke-width="3.4375" stroke-linejoin="round" stroke-miterlimit="10" fill="#4472C4"/></g><g><text fill="#404040" font-family="Calibri,Calibri_MSFontService,Arial" font-weight="400" font-size="41" transform="translate(3105.99 986)">103.9464286</text></g><g><text fill="#404040" font-family="Calibri,Calibri_MSFontService,Arial" font-weight="400" font-size="41" transform="translate(3307.27 1223)">60.26785714</text></g><g><text fill="#404040" font-family="Calibri,Calibri_MSFontService,Arial" font-weight="400" font-size="41" transform="translate(3410.43 1515)">103.4553571</text></g><g><text fill="#404040" font-family="Calibri,Calibri_MSFontService,Arial" font-weight="400" font-size="41" transform="translate(3105.99 1490)">30.98181818</text></g><g><text fill="#404040" font-family="Calibri,Calibri_MSFontService,Arial" font-weight="400" font-size="41" transform="translate(2936.92 1436)">46.78181818</text></g><g><text fill="#404040" font-family="Calibri,Calibri_MSFontService,Arial" font-weight="400" font-size="41" transform="translate(2935.88 1241)">47.21818182</text></g><g><text fill="#595959" font-family="DengXian,DengXian_MSFontService,Arial" font-weight="400" font-size="41" transform="translate(3174.44 960)">语文</text></g><g><text fill="#595959" font-family="DengXian,DengXian_MSFontService,Arial" font-weight="400" font-size="41" transform="translate(3513.79 1163)">数学</text></g><g><text fill="#595959" font-family="DengXian,DengXian_MSFontService,Arial" font-weight="400" font-size="41" transform="translate(3513.79 1507)">英语</text></g><g><text fill="#595959" font-family="DengXian,DengXian_MSFontService,Arial" font-weight="400" font-size="41" transform="translate(3174.44 1709)">物理</text></g><g><text fill="#595959" font-family="DengXian,DengXian_MSFontService,Arial" font-weight="400" font-size="41" transform="translate(2835.09 1507)">化学</text></g><g><text fill="#595959" font-family="DengXian,DengXian_MSFontService,Arial" font-weight="400" font-size="41" transform="translate(2835.09 1163)">生物</text></g><g><text fill="#595959" font-family="DengXian,DengXian_MSFontService,Arial" font-weight="400" font-size="64" transform="translate(3119.44 867)">平均分</text></g><rect x="2390.5" y="770.5" width="1652" height="981" stroke="#D9D9D9" stroke-width="3.4375" stroke-linejoin="round" stroke-miterlimit="10" fill="none"/></g></svg>